<?xml version="1.0" encoding="utf-8"?>
<!-- Generator: Adobe Illustrator 21.1.0, SVG Export Plug-In . SVG Version: 6.00 Build 0)  -->
<svg version="1.1" id="Layer_1" xmlns="http://www.w3.org/2000/svg" xmlns:xlink="http://www.w3.org/1999/xlink" x="0px" y="0px"
	 viewBox="0 0 356 5.7" style="enable-background:new 0 0 356 5.7;" xml:space="preserve">
<style type="text/css">
	.st0{clip-path:url(#SVGID_2_);fill:none;stroke:#231F20;}
</style>
<g>
	<defs>
		<rect id="SVGID_1_" y="-0.6" width="356.4" height="6.3"/>
	</defs>
	<clipPath id="SVGID_2_">
		<use xlink:href="#SVGID_1_"  style="overflow:visible;"/>
	</clipPath>
	<polyline class="st0" points="10.5,5.3 5.4,0.7 0.3,5.3 	"/>
	<polyline class="st0" points="161.8,5.1 156.7,0.5 151.6,5.1 	"/>
	<polyline class="st0" points="86,5.3 80.9,0.7 75.8,5.3 	"/>
	<polyline class="st0" points="237.2,5.1 232.1,0.5 227,5.1 	"/>
	<polyline class="st0" points="48.4,5.2 43.3,0.6 38.2,5.2 	"/>
	<polyline class="st0" points="199.7,5 194.6,0.4 189.5,5 	"/>
	<polyline class="st0" points="123.9,5.2 118.8,0.6 113.7,5.2 	"/>
	<polyline class="st0" points="275.1,5 270,0.4 264.9,5 	"/>
	<polyline class="st0" points="325,5.2 319.9,0.6 314.8,5.2 	"/>
	<polyline class="st0" points="16.5,0.1 11.4,4.7 6.3,0.1 	"/>
	<polyline class="st0" points="167.8,-0.1 162.7,4.5 157.6,-0.1 	"/>
	<polyline class="st0" points="92,0.1 86.9,4.7 81.8,0.1 	"/>
	<polyline class="st0" points="243.2,-0.1 238.1,4.5 233,-0.1 	"/>
	<polyline class="st0" points="54.4,0 49.3,4.6 44.2,0 	"/>
	<polyline class="st0" points="205.7,-0.2 200.6,4.4 195.5,-0.2 	"/>
	<polyline class="st0" points="129.9,0 124.8,4.6 119.7,0 	"/>
	<polyline class="st0" points="281.1,-0.2 276,4.4 270.9,-0.2 	"/>
	<polyline class="st0" points="331,0 325.9,4.6 320.8,0 	"/>
	<polyline class="st0" points="23,5.3 17.9,0.7 12.9,5.3 	"/>
	<polyline class="st0" points="174.3,5.1 169.2,0.5 164.1,5.1 	"/>
	<polyline class="st0" points="98.5,5.3 93.4,0.7 88.3,5.3 	"/>
	<polyline class="st0" points="249.7,5.1 244.7,0.5 239.6,5.1 	"/>
	<polyline class="st0" points="60.9,5.2 55.8,0.6 50.8,5.2 	"/>
	<polyline class="st0" points="212.2,5 207.1,0.4 202,5 	"/>
	<polyline class="st0" points="136.4,5.2 131.3,0.6 126.2,5.2 	"/>
	<polyline class="st0" points="287.6,5 282.6,0.4 277.5,5 	"/>
	<polyline class="st0" points="337.5,5.2 332.4,0.6 327.3,5.2 	"/>
	<polyline class="st0" points="29,0.1 23.9,4.7 18.9,0.1 	"/>
	<polyline class="st0" points="180.3,-0.1 175.2,4.5 170.1,-0.1 	"/>
	<polyline class="st0" points="104.5,0.1 99.4,4.7 94.3,0.1 	"/>
	<polyline class="st0" points="255.7,-0.1 250.7,4.5 245.6,-0.1 	"/>
	<polyline class="st0" points="66.9,0 61.8,4.6 56.8,0 	"/>
	<polyline class="st0" points="218.2,-0.2 213.1,4.4 208,-0.2 	"/>
	<polyline class="st0" points="142.4,0 137.3,4.6 132.2,0 	"/>
	<polyline class="st0" points="293.6,-0.2 288.6,4.4 283.5,-0.2 	"/>
	<polyline class="st0" points="343.5,0 338.4,4.6 333.3,0 	"/>
	<polyline class="st0" points="35.6,5.3 30.5,0.7 25.4,5.3 	"/>
	<polyline class="st0" points="186.8,5.1 181.7,0.5 176.6,5.1 	"/>
	<polyline class="st0" points="111,5.3 105.9,0.7 100.8,5.3 	"/>
	<polyline class="st0" points="262.3,5.1 257.2,0.5 252.1,5.1 	"/>
	<polyline class="st0" points="312.1,5.3 307.1,0.7 302,5.3 	"/>
	<polyline class="st0" points="73.5,5.2 68.4,0.6 63.3,5.2 	"/>
	<polyline class="st0" points="224.7,5 219.6,0.4 214.5,5 	"/>
	<polyline class="st0" points="148.9,5.2 143.8,0.6 138.7,5.2 	"/>
	<polyline class="st0" points="300.2,5 295.1,0.4 290,5 	"/>
	<polyline class="st0" points="350,5.2 344.9,0.6 339.9,5.2 	"/>
	<polyline class="st0" points="41.6,0.1 36.5,4.7 31.4,0.1 	"/>
	<polyline class="st0" points="192.8,-0.1 187.7,4.5 182.6,-0.1 	"/>
	<polyline class="st0" points="117,0.1 111.9,4.7 106.8,0.1 	"/>
	<polyline class="st0" points="268.3,-0.1 263.2,4.5 258.1,-0.1 	"/>
	<polyline class="st0" points="318.1,0.1 313.1,4.7 308,0.1 	"/>
	<polyline class="st0" points="79.5,0 74.4,4.6 69.3,0 	"/>
	<polyline class="st0" points="230.7,-0.2 225.6,4.4 220.5,-0.2 	"/>
	<polyline class="st0" points="154.9,0 149.8,4.6 144.7,0 	"/>
	<polyline class="st0" points="306.2,-0.2 301.1,4.4 296,-0.2 	"/>
	<polyline class="st0" points="356,0 350.9,4.6 345.9,0 	"/>
</g>
</svg>
